#!OML:ASF E:\Steps\Project 1\Capture day 1\Session 2\Subject.ASF
:FULLY-SPECIFIED
:DEGREES
141
root 9.52709 16.3344 9.52891 -151.43 -0.852035 178.875
lowerback -28.4774 -1.73571 -5.94619
upperback -3.2903 -1.29663 -0.498138
thorax 12.181 -1.26783 2.28719
lowerneck -2.60766 0.209931 -5.71619
upperneck 7.12574 0.699188 22.7877
head 2.39609 1.59727 8.09732
rclavicle 5.96354e-015 3.85642e-014
rhumerus -37.9599 -22.1307 -76.3828
rradius 27.763
rwrist 2.08338
rhand -7.60597 -50.671
rfingers 7.12502
rthumb 18.2879 -439.831
lclavicle 5.96354e-015 3.85642e-014
lhumerus -30.2786 3.36985 82.8864
lradius 25.3513
lwrist -3.88944
lhand -19.9328 -10.8174
lfingers 7.12502
lthumb 6.40471 19.0658
rfemur -24.9781 8.97831 17.6355
rtibia 6.40637
rfoot -18.9708 -5.71941
rtoes -30.839
lfemur -26.8983 -10.296 -17.7639
ltibia 8.0609
lfoot -7.85567 3.41892
ltoes -40.5634
142
root 9.52747 16.3345 9.52808 -151.416 -0.837553 178.917
lowerback -28.5375 -1.75471 -5.9514
upperback -3.26209 -1.31652 -0.445274
thorax 12.2486 -1.27873 2.34187
lowerneck -2.64362 0.232054 -5.77012
upperneck 7.14142 0.744052 22.9686
head 2.39891 1.63574 8.17071
rclavicle 6.55989e-015 -2.74323e-014
rhumerus -37.8483 -22.1505 -76.3257
rradius 27.6885
rwrist 2.17655
rhand -7.49928 -50.7744
rfingers 7.12502
rthumb 18.3906 -439.925
lclavicle 6.55989e-015 -2.74323e-014
lhumerus -30.2788 3.33266 82.9604
lradius 25.4389
lwrist -3.8592
lhand -19.2825 -9.99993
lfingers 7.12502
lthumb 7.03248 19.8632
rfemur -25.0212 9.08131 17.6603
rtibia 6.45568
rfoot -18.9904 -5.75892
rtoes -30.5171
lfemur -26.8973 -10.2893 -17.7004
ltibia 8.02612
lfoot -7.83162 3.42112
ltoes -40.8328
143
root 9.52816 16.3339 9.52825 -151.362 -0.820779 178.934
lowerback -28.6572 -1.78671 -5.95057
upperback -3.22414 -1.35052 -0.402722
thorax 12.3597 -1.29706 2.37427
lowerneck -2.71115 0.246708 -5.85265
upperneck 7.16182 0.776367 23.1623
head 2.41031 1.66911 8.25437
rclavicle -9.93923e-016 -1.59028e-014
rhumerus -37.6419 -22.1759 -76.3053
rradius 27.5492
rwrist 2.29686
rhand -7.52175 -50.9964
rfingers 7.12502
rthumb 18.369 -440.149
lclavicle -9.93923e-016 -1.59028e-014
lhumerus -30.2091 3.41656 82.9844
lradius 25.4587
lwrist -3.87433
lhand -19.0606 -10.1881
lfingers 7.12502
lthumb 7.24662 19.6678
rfemur -25.1104 9.06626 17.6853
rtibia 6.50913
rfoot -19.044 -5.63495
rtoes -30.4089
lfemur -26.9343 -10.1466 -17.7098
ltibia 7.99385
lfoot -7.80816 3.33189
ltoes -41.1935
144
root 9.52889 16.3339 9.52835 -151.358 -0.781604 178.936
lowerback -28.6973 -1.79456 -5.94839
upperback -3.18572 -1.35269 -0.391543
thorax 12.4264 -1.29798 2.38388
lowerneck -2.77483 0.251772 -5.91529
upperneck 7.17404 0.798587 23.3601
head 2.42037 1.69886 8.3357
rclavicle 4.96962e-015 -1.47101e-014
rhumerus -37.5368 -22.082 -76.3673
rradius 27.5649
rwrist 2.25027
rhand -7.7448 -51.1927
rfingers 7.12502
rthumb 18.1544 -440.365
lclavicle 4.96962e-015 -1.47101e-014
lhumerus -30.1114 3.30207 83.0403
lradius 25.4913
lwrist -3.71412
lhand -19.3556 -10.8205
lfingers 7.12502
lthumb 6.96186 19.045
rfemur -25.1258 9.03543 17.7151
rtibia 6.53828
rfoot -19.0902 -5.67949
rtoes -31.1032
lfemur -26.9546 -10.1124 -17.7214
ltibia 8.05286
lfoot -7.91032 3.31158
ltoes -41.4694
145
root 9.52886 16.3351 9.52651 -151.401 -0.739134 178.928
lowerback -28.6179 -1.76991 -5.98487
upperback -3.19349 -1.31281 -0.398541
thorax 12.3727 -1.2796 2.41419
lowerneck -2.81537 0.238492 -5.94298
upperneck 7.18205 0.799903 23.5597
head 2.42866 1.72028 8.41074
rclavicle 1.22253e-014 3.97569e-016
rhumerus -37.7024 -21.8325 -76.4146
rradius 27.835
rwrist 1.88732
rhand -7.74704 -51.3247
rfingers 7.12502
rthumb 18.1522 -440.498
lclavicle 1.22253e-014 3.97569e-016
lhumerus -30.1135 3.07975 83.1107
lradius 25.5374
lwrist -3.75697
lhand -19.7577 -10.6007
lfingers 7.12502
lthumb 6.57375 19.2773
rfemur -25.0785 9.02188 17.7179
rtibia 6.54583
rfoot -19.0789 -5.74197
rtoes -31.4077
lfemur -26.8996 -10.173 -17.7241
ltibia 8.06725
lfoot -8.03488 3.34749
ltoes -41.0489
146
root 9.52811 16.3363 9.52321 -151.461 -0.702701 178.88
lowerback -28.522 -1.74884 -6.0347
upperback -3.20873 -1.27354 -0.430089
thorax 12.3011 -1.26158 2.42392
lowerneck -2.85658 0.217706 -5.9757
upperneck 7.20324 0.788359 23.7564
head 2.44287 1.73604 8.48611
rclavicle -9.93923e-016 2.06736e-014
rhumerus -37.8541 -21.6761 -76.4214
rradius 27.9862
rwrist 1.57137
rhand -7.65395 -51.3173
rfingers 7.12502
rthumb 18.2418 -440.482
lclavicle -9.93923e-016 2.06736e-014
lhumerus -30.1581 2.89251 83.1523
lradius 25.5276
lwrist -3.6396
lhand -20.5122 -11.1122
lfingers 7.12502
lthumb 5.8453 18.7872
rfemur -25.0044 8.98588 17.665
rtibia 6.54303
rfoot -19.0828 -5.61962
rtoes -30.8451
lfemur -26.7871 -10.2147 -17.7927
ltibia 8.00936
lfoot -8.04095 3.37635
ltoes -40.4459
147
root 9.52886 16.3376 9.52158 -151.49 -0.6921 178.863
lowerback -28.4709 -1.75395 -6.04358
upperback -3.21057 -1.27894 -0.438223
thorax 12.2728 -1.26308 2.41869
lowerneck -2.88465 0.235874 -6.03875
upperneck 7.23227 0.827012 23.9342
head 2.44867 1.77217 8.56143
rclavicle -3.97569e-015 -2.66371e-014
rhumerus -37.8666 -21.6847 -76.3899
rradius 27.9484
rwrist 1.59577
rhand -7.53966 -51.1226
rfingers 7.12502
rthumb 18.3517 -440.277
lclavicle -3.97569e-015 -2.66371e-014
lhumerus -30.1739 2.73766 83.2064
lradius 25.4853
lwrist -3.23795
lhand -21.0751 -11.9182
lfingers 7.12502
lthumb 5.30182 17.9955
rfemur -24.9684 8.80659 17.6966
rtibia 6.54333
rfoot -19.098 -5.3421
rtoes -30.2514
lfemur -26.7358 -10.2157 -17.8184
ltibia 7.98305
lfoot -8.01413 3.37798
ltoes -40.4918
148
root 9.52906 16.3386 9.52142 -151.474 -0.698658 178.854
lowerback -28.4816 -1.78188 -6.04743
upperback -3.21248 -1.31614 -0.422282
thorax 12.28 -1.28107 2.42468
lowerneck -2.88138 0.28174 -6.10602
upperneck 7.25754 0.904683 24.1012
head 2.44124 1.82398 8.63372
rclavicle 4.17448e-015 3.97569e-015
rhumerus -37.9278 -21.6368 -76.3682
rradius 28.0147
rwrist 1.66869
rhand -7.45384 -50.8211
rfingers 7.12502
rthumb 18.4343 -439.968
lclavicle 4.17448e-015 3.97569e-015
lhumerus -30.2296 2.75717 83.2257
lradius 25.5109
lwrist -3.20319
lhand -21.2168 -12.1446
lfingers 7.12502
lthumb 5.16499 17.7724
rfemur -24.9803 8.67168 17.7168
rtibia 6.55173
rfoot -19.1047 -5.15483
rtoes -29.9683
lfemur -26.7708 -10.164 -17.8385
ltibia 8.02674
lfoot -8.01372 3.29542
ltoes -40.4036
149
root 9.52829 16.3385 9.52138 -151.439 -0.685878 178.847
lowerback -28.506 -1.7923 -6.01185
upperback -3.21936 -1.34141 -0.427505
thorax 12.2862 -1.29181 2.38785
lowerneck -2.89636 0.292975 -6.18893
upperneck 7.28269 0.934679 24.2969
head 2.4444 1.85502 8.71883
rclavicle -4.07509e-015 -2.10712e-014
rhumerus -38.0148 -21.5601 -76.396
rradius 28.1649
rwrist 1.66281
rhand -7.52147 -50.6189
rfingers 7.12502
rthumb 18.3692 -439.772
lclavicle -4.07509e-015 -2.10712e-014
lhumerus -30.2798 2.86559 83.1912
lradius 25.5136
lwrist -3.17966
lhand -21.3709 -12.5088
lfingers 7.12502
lthumb 5.01627 17.4118
rfemur -25.0494 8.74741 17.673
rtibia 6.61876
rfoot -19.1537 -5.22614
rtoes -30.0333
lfemur -26.8264 -10.1022 -17.8648
ltibia 8.08354
lfoot -8.04549 3.23116
ltoes -40.3709
150
root 9.52963 16.3381 9.52156 -151.431 -0.667709 178.855
lowerback -28.4606 -1.79965 -5.9843
upperback -3.21585 -1.36046 -0.426795
thorax 12.2681 -1.29784 2.36645
lowerneck -2.97394 0.274359 -6.27807
upperneck 7.30603 0.921579 24.5013
head 2.46545 1.8685 8.80903
rclavicle -4.27387e-015 5.96354e-015
rhumerus -38.0098 -21.3796 -76.495
rradius 28.2962
rwrist 1.5068
rhand -7.63249 -50.4814
rfingers 7.12502
rthumb 18.2624 -439.644
lclavicle -4.27387e-015 5.96354e-015
lhumerus -30.2601 2.89543 83.168
lradius 25.4825
lwrist -2.96818
lhand -21.4377 -12.7072
lfingers 7.12502
lthumb 4.95172 17.2149
rfemur -25.127 8.84849 17.6534
rtibia 6.73263
rfoot -19.2385 -5.30196
rtoes -29.7871
lfemur -26.8337 -10.0853 -17.8465
ltibia 8.07974
lfoot -8.10373 3.22008
ltoes -40.5551
151
root 9.53169 16.3385 9.52111 -151.492 -0.65436 178.838
lowerback -28.3611 -1.83266 -6.0213
upperback -3.1822 -1.39032 -0.400662
thorax 12.26 -1.30999 2.40844
lowerneck -3.05175 0.280706 -6.36429
upperneck 7.33459 0.942864 24.6942
head 2.48244 1.89844 8.89558
rclavicle 4.47266e-015 1.70955e-014
rhumerus -37.9493 -21.0016 -76.643
rradius 28.4295
rwrist 1.22837
rhand -7.63705 -50.4961
rfingers 7.12502
rthumb 18.258 -439.659
lclavicle 4.47266e-015 1.70955e-014
lhumerus -30.236 2.89651 83.1882
lradius 25.4977
lwrist -2.81714
lhand -21.3154 -12.4885
lfingers 7.12502
lthumb 5.06977 17.4309
rfemur -25.0697 8.80457 17.6626
rtibia 6.76021
rfoot -19.3008 -5.20513
rtoes -29.397
lfemur -26.7594 -10.0734 -17.868
ltibia 8.05331
lfoot -8.10221 3.17331
ltoes -40.5206
152
root 9.53254 16.3391 9.51924 -151.513 -0.623008 178.792
lowerback -28.3387 -1.85212 -6.06823
upperback -3.16471 -1.39901 -0.394562
thorax 12.2707 -1.31544 2.43952
lowerneck -3.1015 0.304997 -6.46016
upperneck 7.37239 0.989582 24.8845
head 2.49248 1.93972 8.9834
rclavicle -1.73937e-014 -1.03368e-014
rhumerus -37.9766 -20.6415 -76.7669
rradius 28.6269
rwrist 0.978109
rhand -7.58441 -50.6806
rfingers 7.12502
rthumb 18.3087 -439.839
lclavicle -1.73937e-014 -1.03368e-014
lhumerus -30.241 2.91764 83.2033
lradius 25.5092
lwrist -2.73905
lhand -21.1477 -12.1543
lfingers 7.12502
lthumb 5.23178 17.7612
rfemur -25.0082 8.44664 17.7103
rtibia 6.70852
rfoot -19.2905 -4.93384
rtoes -29.8975
lfemur -26.7529 -10.0605 -17.9384
ltibia 8.12754
lfoot -8.12986 3.17312
ltoes -40.3992
